<svg width="143" height="22" viewBox="0 0 143 22" fill="none" xmlns="http://www.w3.org/2000/svg">
<g clip-path="url(#clip0_664_1416)">
<path d="M26.4639 10.5928H29.2803V11.5361H26.4639V14.4482H25.5137V11.5361H22.7109V10.5928H25.5137V7.66699H26.4639V10.5928ZM31.96 16L36.1025 7.05176H30.6543V6.00586H37.3057V6.91504L33.2178 16H31.96ZM42.2207 12.165C42.2207 10.9574 42.3962 9.82715 42.7471 8.77441C43.1025 7.72168 43.613 6.79883 44.2783 6.00586H45.3857C44.7295 6.88542 44.235 7.85156 43.9023 8.9043C43.5742 9.95703 43.4102 11.0394 43.4102 12.1514C43.4102 13.2451 43.5788 14.3138 43.916 15.3574C44.2533 16.401 44.7386 17.3535 45.3721 18.2148H44.2783C43.6084 17.4401 43.098 16.5355 42.7471 15.501C42.3962 14.4665 42.2207 13.3545 42.2207 12.165ZM53.5273 13.7031H52.0439V16H50.957V13.7031H46.0967V12.7119L50.8408 5.95117H52.0439V12.6709H53.5273V13.7031ZM50.957 12.6709V9.34863C50.957 8.69694 50.9798 7.96094 51.0254 7.14062H50.9707C50.752 7.57812 50.5469 7.94043 50.3555 8.22754L47.2314 12.6709H50.957ZM61.0674 10.2715C61.0674 14.1816 59.5544 16.1367 56.5283 16.1367C55.9997 16.1367 55.5804 16.0911 55.2705 16V15.0225C55.6351 15.141 56.0498 15.2002 56.5146 15.2002C57.6084 15.2002 58.4333 14.863 58.9893 14.1885C59.5498 13.5094 59.8551 12.4704 59.9053 11.0713H59.8232C59.5726 11.4495 59.2399 11.7389 58.8252 11.9395C58.4105 12.1354 57.9434 12.2334 57.4238 12.2334C56.5397 12.2334 55.8379 11.9691 55.3184 11.4404C54.7988 10.9118 54.5391 10.1735 54.5391 9.22559C54.5391 8.18652 54.8285 7.36621 55.4072 6.76465C55.9906 6.16309 56.7562 5.8623 57.7041 5.8623C58.3831 5.8623 58.9756 6.03776 59.4814 6.38867C59.9919 6.73503 60.3838 7.24316 60.6572 7.91309C60.9307 8.57845 61.0674 9.36458 61.0674 10.2715ZM57.7041 6.83301C57.0524 6.83301 56.5488 7.04264 56.1934 7.46191C55.8379 7.88118 55.6602 8.46452 55.6602 9.21191C55.6602 9.86816 55.8242 10.3854 56.1523 10.7637C56.4805 11.1374 56.9795 11.3242 57.6494 11.3242C58.0641 11.3242 58.4447 11.2399 58.791 11.0713C59.1419 10.9027 59.4176 10.6725 59.6182 10.3809C59.8187 10.0892 59.9189 9.78385 59.9189 9.46484C59.9189 8.98633 59.8255 8.54427 59.6387 8.13867C59.4518 7.73307 59.1898 7.41406 58.8525 7.18164C58.5199 6.94922 58.137 6.83301 57.7041 6.83301ZM65.6338 9.89551C66.6865 9.89551 67.5137 10.1576 68.1152 10.6816C68.7214 11.2012 69.0244 11.9144 69.0244 12.8213C69.0244 13.8558 68.694 14.667 68.0332 15.2549C67.377 15.8428 66.4701 16.1367 65.3125 16.1367C64.1868 16.1367 63.3278 15.9567 62.7354 15.5967V14.5029C63.0544 14.708 63.4508 14.8698 63.9248 14.9883C64.3988 15.1022 64.8659 15.1592 65.3262 15.1592C66.1283 15.1592 66.7503 14.9701 67.1924 14.5918C67.639 14.2135 67.8623 13.6667 67.8623 12.9512C67.8623 11.5566 67.0078 10.8594 65.2988 10.8594C64.8659 10.8594 64.2871 10.9255 63.5625 11.0576L62.9746 10.6816L63.3506 6.00586H68.3203V7.05176H64.3213L64.0684 10.0527C64.5924 9.94792 65.1143 9.89551 65.6338 9.89551ZM73.4199 12.165C73.4199 13.3636 73.2422 14.4801 72.8867 15.5146C72.5358 16.5492 72.0277 17.4492 71.3623 18.2148H70.2686C70.902 17.3581 71.3874 16.4079 71.7246 15.3643C72.0618 14.3161 72.2305 13.2451 72.2305 12.1514C72.2305 11.0394 72.0641 9.95703 71.7314 8.9043C71.4033 7.85156 70.9111 6.88542 70.2549 6.00586H71.3623C72.0322 6.80339 72.5426 7.73079 72.8936 8.78809C73.2445 9.84082 73.4199 10.9665 73.4199 12.165ZM81.6094 5.8623C82.5208 5.8623 83.2432 6.07422 83.7764 6.49805C84.3096 6.92188 84.5762 7.50749 84.5762 8.25488C84.5762 8.74707 84.4235 9.19596 84.1182 9.60156C83.8128 10.0072 83.3252 10.3763 82.6553 10.709C83.4665 11.0964 84.043 11.5042 84.3848 11.9326C84.7266 12.3564 84.8975 12.8486 84.8975 13.4092C84.8975 14.2386 84.6081 14.9017 84.0293 15.3984C83.4505 15.8906 82.6576 16.1367 81.6504 16.1367C80.584 16.1367 79.7637 15.9043 79.1895 15.4395C78.6152 14.9701 78.3281 14.307 78.3281 13.4502C78.3281 12.3063 79.0254 11.4154 80.4199 10.7773C79.791 10.4219 79.3398 10.0391 79.0664 9.62891C78.793 9.21419 78.6562 8.75163 78.6562 8.24121C78.6562 7.5166 78.9229 6.9401 79.4561 6.51172C79.9938 6.07878 80.7116 5.8623 81.6094 5.8623ZM79.4492 13.4775C79.4492 14.0244 79.6383 14.4505 80.0166 14.7559C80.3994 15.0612 80.9349 15.2139 81.623 15.2139C82.3021 15.2139 82.8307 15.0544 83.209 14.7354C83.5872 14.4163 83.7764 13.9788 83.7764 13.4229C83.7764 12.9808 83.5986 12.5889 83.2432 12.2471C82.8877 11.9007 82.2679 11.5658 81.3838 11.2422C80.7048 11.5339 80.2126 11.8574 79.9072 12.2129C79.6019 12.5638 79.4492 12.9854 79.4492 13.4775ZM81.5957 6.78516C81.026 6.78516 80.5794 6.92188 80.2559 7.19531C79.9323 7.46875 79.7705 7.83333 79.7705 8.28906C79.7705 8.70833 79.9049 9.06836 80.1738 9.36914C80.4427 9.66992 80.9395 9.9707 81.6641 10.2715C82.3158 9.99805 82.776 9.7041 83.0449 9.38965C83.3184 9.0752 83.4551 8.70833 83.4551 8.28906C83.4551 7.82878 83.2887 7.46419 82.9561 7.19531C82.6279 6.92188 82.1745 6.78516 81.5957 6.78516ZM89.6211 5.8623C90.5326 5.8623 91.2549 6.07422 91.7881 6.49805C92.3213 6.92188 92.5879 7.50749 92.5879 8.25488C92.5879 8.74707 92.4352 9.19596 92.1299 9.60156C91.8245 10.0072 91.3369 10.3763 90.667 10.709C91.4782 11.0964 92.0547 11.5042 92.3965 11.9326C92.7383 12.3564 92.9092 12.8486 92.9092 13.4092C92.9092 14.2386 92.6198 14.9017 92.041 15.3984C91.4622 15.8906 90.6693 16.1367 89.6621 16.1367C88.5957 16.1367 87.7754 15.9043 87.2012 15.4395C86.627 14.9701 86.3398 14.307 86.3398 13.4502C86.3398 12.3063 87.0371 11.4154 88.4316 10.7773C87.8027 10.4219 87.3516 10.0391 87.0781 9.62891C86.8047 9.21419 86.668 8.75163 86.668 8.24121C86.668 7.5166 86.9346 6.9401 87.4678 6.51172C88.0055 6.07878 88.7233 5.8623 89.6211 5.8623ZM87.4609 13.4775C87.4609 14.0244 87.6501 14.4505 88.0283 14.7559C88.4111 15.0612 88.9466 15.2139 89.6348 15.2139C90.3138 15.2139 90.8424 15.0544 91.2207 14.7354C91.599 14.4163 91.7881 13.9788 91.7881 13.4229C91.7881 12.9808 91.6104 12.5889 91.2549 12.2471C90.8994 11.9007 90.2796 11.5658 89.3955 11.2422C88.7165 11.5339 88.2243 11.8574 87.9189 12.2129C87.6136 12.5638 87.4609 12.9854 87.4609 13.4775ZM89.6074 6.78516C89.0378 6.78516 88.5911 6.92188 88.2676 7.19531C87.944 7.46875 87.7822 7.83333 87.7822 8.28906C87.7822 8.70833 87.9167 9.06836 88.1855 9.36914C88.4544 9.66992 88.9512 9.9707 89.6758 10.2715C90.3275 9.99805 90.7878 9.7041 91.0566 9.38965C91.3301 9.0752 91.4668 8.70833 91.4668 8.28906C91.4668 7.82878 91.3005 7.46419 90.9678 7.19531C90.6396 6.92188 90.1862 6.78516 89.6074 6.78516ZM97.4482 9.89551C98.501 9.89551 99.3281 10.1576 99.9297 10.6816C100.536 11.2012 100.839 11.9144 100.839 12.8213C100.839 13.8558 100.508 14.667 99.8477 15.2549C99.1914 15.8428 98.2845 16.1367 97.127 16.1367C96.0013 16.1367 95.1423 15.9567 94.5498 15.5967V14.5029C94.8688 14.708 95.2653 14.8698 95.7393 14.9883C96.2132 15.1022 96.6803 15.1592 97.1406 15.1592C97.9427 15.1592 98.5648 14.9701 99.0068 14.5918C99.4535 14.2135 99.6768 13.6667 99.6768 12.9512C99.6768 11.5566 98.8223 10.8594 97.1133 10.8594C96.6803 10.8594 96.1016 10.9255 95.377 11.0576L94.7891 10.6816L95.165 6.00586H100.135V7.05176H96.1357L95.8828 10.0527C96.4069 9.94792 96.9287 9.89551 97.4482 9.89551ZM102.227 12.7666V11.7275H105.583V12.7666H102.227ZM113.889 13.7031H112.405V16H111.318V13.7031H106.458V12.7119L111.202 5.95117H112.405V12.6709H113.889V13.7031ZM111.318 12.6709V9.34863C111.318 8.69694 111.341 7.96094 111.387 7.14062H111.332C111.113 7.57812 110.908 7.94043 110.717 8.22754L107.593 12.6709H111.318ZM117.983 9.89551C119.036 9.89551 119.863 10.1576 120.465 10.6816C121.071 11.2012 121.374 11.9144 121.374 12.8213C121.374 13.8558 121.044 14.667 120.383 15.2549C119.727 15.8428 118.82 16.1367 117.662 16.1367C116.536 16.1367 115.677 15.9567 115.085 15.5967V14.5029C115.404 14.708 115.8 14.8698 116.274 14.9883C116.748 15.1022 117.215 15.1592 117.676 15.1592C118.478 15.1592 119.1 14.9701 119.542 14.5918C119.989 14.2135 120.212 13.6667 120.212 12.9512C120.212 11.5566 119.357 10.8594 117.648 10.8594C117.215 10.8594 116.637 10.9255 115.912 11.0576L115.324 10.6816L115.7 6.00586H120.67V7.05176H116.671L116.418 10.0527C116.942 9.94792 117.464 9.89551 117.983 9.89551ZM122.762 12.7666V11.7275H126.118V12.7666H122.762ZM134.424 13.7031H132.94V16H131.854V13.7031H126.993V12.7119L131.737 5.95117H132.94V12.6709H134.424V13.7031ZM131.854 12.6709V9.34863C131.854 8.69694 131.876 7.96094 131.922 7.14062H131.867C131.648 7.57812 131.443 7.94043 131.252 8.22754L128.128 12.6709H131.854ZM136.659 16L140.802 7.05176H135.354V6.00586H142.005V6.91504L137.917 16H136.659Z" fill="#FF862F"/>
<path d="M18.3425 14.0983C17.215 14.0983 16.1242 13.915 15.1067 13.585C14.7858 13.475 14.4283 13.5575 14.1808 13.805L12.7417 15.6108C10.1475 14.3733 7.71833 12.0358 6.42583 9.35L8.21333 7.82833C8.46083 7.57167 8.53417 7.21417 8.43333 6.89333C8.09417 5.87583 7.92 4.785 7.92 3.6575C7.92 3.1625 7.5075 2.75 7.0125 2.75H3.84083C3.34583 2.75 2.75 2.97 2.75 3.6575C2.75 12.1733 9.83583 19.25 18.3425 19.25C18.9933 19.25 19.25 18.6725 19.25 18.1683V15.0058C19.25 14.5108 18.8375 14.0983 18.3425 14.0983Z" fill="#FF862F"/>
</g>
<defs>
<clipPath id="clip0_664_1416">
<rect width="143" height="22" fill="white"/>
</clipPath>
</defs>
</svg>
