<?xml version="1.0" encoding="utf-8"?><svg viewBox="0 0 143 30" xmlns="http://www.w3.org/2000/svg" xmlns:xlink="http://www.w3.org/1999/xlink"><style>:root>svg{display:none}:root>svg:target{display:block}</style><svg viewBox="-1 -1 24 24" id="arrow-right-fill" xmlns="http://www.w3.org/2000/svg"><g clip-path="url(#aa)"><circle cx="11" cy="11" r="11"/><path d="M9.625 7.563L13.063 11l-3.438 3.438"/></g><defs><clipPath id="aa"><path d="M0 0h22v22H0z"/></clipPath></defs></svg><svg viewBox="0 0 30 28" id="basket" xmlns="http://www.w3.org/2000/svg"><path d="M28.816 19.85H8.902l1-2.114 16.613-.03c.562 0 1.044-.417 1.144-.994l2.3-13.366a1.24 1.24 0 00-.25-.986 1.177 1.177 0 00-.399-.318 1.135 1.135 0 00-.49-.116L7.684 1.853l-.18-.881C7.39.41 6.901 0 6.346 0H1.18C.867 0 .567.13.346.359A1.25 1.25 0 000 1.225c0 .325.124.637.346.867.221.23.521.358.834.358h4.21l.79 3.895 1.943 9.764-2.502 4.238a1.253 1.253 0 00-.1 1.277c.2.413.605.673 1.054.673h2.1a3.645 3.645 0 00-.69 2.142c0 1.964 1.539 3.561 3.432 3.561s3.43-1.597 3.43-3.561c0-.774-.247-1.527-.688-2.142h5.387a3.645 3.645 0 00-.689 2.142c0 1.964 1.539 3.561 3.431 3.561 1.893 0 3.431-1.597 3.431-3.561 0-.774-.247-1.527-.688-2.142h3.789c.648 0 1.18-.548 1.18-1.225a1.253 1.253 0 00-.35-.864 1.163 1.163 0 00-.834-.358zM8.176 4.27l19.256.065-1.886 10.961-15.126.028L8.176 4.27zm3.24 21.266c-.581 0-1.056-.493-1.056-1.097s.475-1.097 1.057-1.097 1.056.493 1.056 1.097c0 .29-.11.57-.309.775a1.037 1.037 0 01-.747.322zm10.872 0c-.581 0-1.056-.493-1.056-1.097s.475-1.097 1.056-1.097c.582 0 1.057.493 1.057 1.097 0 .29-.111.57-.31.775a1.038 1.038 0 01-.747.322z"/></svg><svg viewBox="0 0 12 12" id="close" xmlns="http://www.w3.org/2000/svg"><path fill-rule="evenodd" clip-rule="evenodd" d="M1.429.239l5.326 5.185a.8.8 0 010 1.152l-5.326 5.185a.853.853 0 01-1.184 0 .8.8 0 010-1.152L4.98 6 .245 1.39a.8.8 0 010-1.151.853.853 0 011.184 0z"/><path fill-rule="evenodd" clip-rule="evenodd" d="M10.571.239L5.245 5.424a.8.8 0 000 1.152l5.326 5.185a.853.853 0 001.184 0 .8.8 0 000-1.152L7.02 6l4.734-4.61a.8.8 0 000-1.151.853.853 0 00-1.184 0z"/></svg><svg viewBox="0 0 30 30" id="fb-icon" xmlns="http://www.w3.org/2000/svg"><path d="M15 0C6.75 0 0 6.762 0 15.09 0 22.62 5.49 28.87 12.66 30V19.458H8.85V15.09h3.81v-3.328c0-3.78 2.235-5.858 5.67-5.858 1.635 0 3.345.286 3.345.286v3.72h-1.89c-1.86 0-2.445 1.16-2.445 2.349v2.831h4.17l-.675 4.368H17.34V30a14.985 14.985 0 009.075-5.105A15.097 15.097 0 0030 15.09C30 6.762 23.25 0 15 0z"/></svg><svg viewBox="0 0 143 22" id="header-tel" xmlns="http://www.w3.org/2000/svg"><g clip-path="url(#ea)"><path d="M26.464 10.593h2.816v.943h-2.816v2.912h-.95v-2.912H22.71v-.943h2.803V7.667h.95v2.926zM31.96 16l4.142-8.948h-5.448V6.006h6.652v.909L33.218 16H31.96zm10.26-3.835c0-1.208.176-2.338.527-3.39a8.478 8.478 0 011.531-2.77h1.108a9.7 9.7 0 00-1.484 2.9 10.85 10.85 0 00-.492 3.246c0 1.094.169 2.163.506 3.206a9.954 9.954 0 001.456 2.858h-1.094a8.055 8.055 0 01-1.53-2.714 10.319 10.319 0 01-.527-3.336zm11.307 1.538h-1.483V16h-1.087v-2.297h-4.86v-.991l4.744-6.76h1.203v6.719h1.483v1.032zm-2.57-1.032V9.349c0-.652.023-1.388.068-2.208h-.054c-.219.437-.424.8-.615 1.087L47.23 12.67h3.726zm10.11-2.4c0 3.91-1.513 5.866-4.539 5.866-.528 0-.948-.046-1.258-.137v-.977c.365.118.78.177 1.245.177 1.093 0 1.918-.337 2.474-1.011.56-.68.866-1.719.916-3.118h-.082c-.25.379-.583.668-.998.869a3.241 3.241 0 01-1.401.293c-.884 0-1.586-.264-2.106-.793-.52-.528-.779-1.266-.779-2.214 0-1.04.29-1.86.868-2.461.584-.602 1.35-.903 2.297-.903.68 0 1.272.176 1.777.527.51.346.903.854 1.176 1.524.274.665.41 1.452.41 2.358zm-3.363-3.438c-.652 0-1.155.21-1.51.629-.356.42-.534 1.003-.534 1.75 0 .656.164 1.173.492 1.552.328.373.828.56 1.497.56.415 0 .796-.084 1.142-.253.35-.168.627-.399.827-.69.2-.292.3-.597.3-.916 0-.479-.093-.92-.28-1.326a2.302 2.302 0 00-.785-.957 1.955 1.955 0 00-1.149-.349zm7.93 3.063c1.052 0 1.88.262 2.481.786.606.52.91 1.232.91 2.14 0 1.034-.331 1.845-.992 2.433-.656.588-1.563.882-2.72.882-1.126 0-1.985-.18-2.578-.54v-1.094c.32.205.716.367 1.19.485.474.114.94.171 1.401.171.802 0 1.424-.189 1.866-.567.447-.379.67-.925.67-1.64 0-1.395-.854-2.093-2.563-2.093-.433 0-1.012.066-1.737.199l-.587-.376.376-4.676h4.97v1.046h-4l-.253 3a7.967 7.967 0 011.566-.156zm7.786 2.269c0 1.199-.178 2.315-.533 3.35a7.965 7.965 0 01-1.525 2.7H70.27a9.856 9.856 0 001.456-2.85 10.43 10.43 0 00.506-3.214c0-1.112-.167-2.194-.5-3.247a9.577 9.577 0 00-1.476-2.898h1.107a8.382 8.382 0 011.532 2.782c.35 1.053.526 2.178.526 3.377zm8.19-6.303c.91 0 1.633.212 2.166.636.534.424.8 1.01.8 1.757 0 .492-.152.941-.458 1.347-.305.405-.793.774-1.463 1.107.811.387 1.388.795 1.73 1.224.342.423.512.916.512 1.476 0 .83-.289 1.493-.868 1.99-.578.492-1.371.738-2.379.738-1.066 0-1.886-.233-2.46-.697-.575-.47-.862-1.133-.862-1.99 0-1.144.697-2.035 2.092-2.673-.629-.355-1.08-.738-1.354-1.148a2.467 2.467 0 01-.41-1.388c0-.724.267-1.3.8-1.73.538-.432 1.256-.649 2.153-.649zm-2.16 7.615c0 .547.188.973.567 1.279.382.305.918.458 1.606.458.68 0 1.208-.16 1.586-.479.378-.319.567-.756.567-1.312 0-.442-.177-.834-.533-1.176-.355-.346-.975-.681-1.86-1.005-.678.292-1.17.615-1.476.97a1.866 1.866 0 00-.458 1.265zm2.146-6.692c-.57 0-1.017.137-1.34.41-.324.274-.486.638-.486 1.094 0 .42.135.78.404 1.08.269.3.765.602 1.49.902.652-.273 1.112-.567 1.38-.881.274-.315.411-.682.411-1.1 0-.461-.166-.826-.499-1.095-.328-.273-.782-.41-1.36-.41zm8.025-.923c.912 0 1.634.212 2.167.636.533.424.8 1.01.8 1.757 0 .492-.153.941-.458 1.347-.305.405-.793.774-1.463 1.107.811.387 1.388.795 1.73 1.224.341.423.512.916.512 1.476 0 .83-.29 1.493-.868 1.99-.579.492-1.372.738-2.379.738-1.066 0-1.887-.233-2.46-.697-.575-.47-.862-1.133-.862-1.99 0-1.144.697-2.035 2.092-2.673-.63-.355-1.08-.738-1.354-1.148a2.467 2.467 0 01-.41-1.388c0-.724.267-1.3.8-1.73.537-.432 1.255-.649 2.153-.649zm-2.16 7.615c0 .547.19.973.567 1.279.383.305.919.458 1.607.458.679 0 1.207-.16 1.586-.479.378-.319.567-.756.567-1.312 0-.442-.178-.834-.533-1.176-.356-.346-.975-.681-1.86-1.005-.678.292-1.17.615-1.476.97a1.866 1.866 0 00-.458 1.265zm2.146-6.692c-.57 0-1.016.137-1.34.41-.323.274-.485.638-.485 1.094 0 .42.135.78.404 1.08.268.3.765.602 1.49.902.651-.273 1.112-.567 1.38-.881.274-.315.41-.682.41-1.1 0-.461-.165-.826-.498-1.095-.328-.273-.782-.41-1.36-.41zm7.841 3.11c1.053 0 1.88.263 2.482.787.606.52.909 1.232.909 2.14 0 1.034-.331 1.845-.991 2.433-.657.588-1.564.882-2.721.882-1.126 0-1.985-.18-2.577-.54v-1.094c.319.205.715.367 1.19.485.473.114.94.171 1.4.171.803 0 1.425-.189 1.867-.567.447-.379.67-.925.67-1.64 0-1.395-.855-2.093-2.564-2.093-.433 0-1.011.066-1.736.199l-.588-.376.376-4.676h4.97v1.046h-4l-.252 3a7.968 7.968 0 011.565-.156zm4.779 2.872v-1.04h3.356v1.04h-3.356zm11.662.936h-1.484V16h-1.087v-2.297h-4.86v-.991l4.744-6.76h1.203v6.719h1.484v1.032zm-2.571-1.032V9.349c0-.652.023-1.388.069-2.208h-.055c-.219.437-.424.8-.615 1.087l-3.124 4.443h3.725zm6.665-2.775c1.053 0 1.88.262 2.482.786.606.52.909 1.232.909 2.14 0 1.034-.33 1.845-.991 2.433-.656.588-1.563.882-2.721.882-1.126 0-1.985-.18-2.577-.54v-1.094c.319.205.715.367 1.189.485.474.114.941.171 1.402.171.802 0 1.424-.189 1.866-.567.447-.379.67-.925.67-1.64 0-1.395-.855-2.093-2.564-2.093-.433 0-1.011.066-1.736.199l-.588-.376.376-4.676h4.97v1.046h-3.999l-.253 3a7.967 7.967 0 011.565-.156zm4.779 2.87v-1.039h3.356v1.04h-3.356zm11.662.937h-1.484V16h-1.086v-2.297h-4.861v-.991l4.744-6.76h1.203v6.719h1.484v1.032zm-2.57-1.032V9.349c0-.652.022-1.388.068-2.208h-.055c-.219.437-.424.8-.615 1.087l-3.124 4.443h3.726zM136.659 16l4.143-8.948h-5.448V6.006h6.651v.909L137.917 16h-1.258zM18.343 14.098a10.49 10.49 0 01-3.236-.513.896.896 0 00-.926.22l-1.44 1.806c-2.593-1.238-5.023-3.575-6.315-6.261l1.787-1.522a.935.935 0 00.22-.935 10.223 10.223 0 01-.513-3.235.916.916 0 00-.907-.908H3.84c-.495 0-1.091.22-1.091.908 0 8.515 7.086 15.592 15.593 15.592.65 0 .907-.578.907-1.082v-3.162a.916.916 0 00-.907-.908z"/></g><defs><clipPath id="ea"><path d="M0 0h143v22H0z"/></clipPath></defs></svg><svg viewBox="0 0 30 30" id="instagram-icon" xmlns="http://www.w3.org/2000/svg"><g clip-path="url(#fa)"><path d="M12.129 15a2.871 2.871 0 105.742 0 2.871 2.871 0 00-5.742 0z"/><path d="M8.286 9.92a2.66 2.66 0 01.644-.99c.278-.287.616-.507.99-.645.304-.118.76-.258 1.6-.296.908-.042 1.18-.05 3.48-.05s2.573.008 3.48.05c.84.038 1.297.178 1.6.296.374.138.713.358.99.645.286.277.506.616.645.99.118.303.258.76.296 1.6.042.908.05 1.18.05 3.48s-.008 2.572-.05 3.48c-.038.84-.178 1.296-.296 1.6a2.67 2.67 0 01-.645.99 2.667 2.667 0 01-.99.644c-.303.119-.76.259-1.6.297-.907.041-1.18.05-3.48.05s-2.572-.009-3.48-.05c-.84-.038-1.296-.178-1.6-.297a2.852 2.852 0 01-1.634-1.634c-.118-.304-.259-.76-.297-1.6-.041-.908-.05-1.18-.05-3.48s.009-2.572.05-3.48c.038-.84.178-1.297.297-1.6zM15 19.423a4.423 4.423 0 100-8.846 4.423 4.423 0 000 8.846zm-4.598-7.987a1.034 1.034 0 100-2.068 1.034 1.034 0 000 2.068z"/><path d="M15 0c8.283 0 15 6.717 15 15 0 8.283-6.717 15-15 15-8.283 0-15-6.717-15-15C0 6.717 6.717 0 15 0zM6.439 18.551c.041.917.187 1.543.4 2.09a4.404 4.404 0 002.52 2.52c.547.213 1.173.358 2.09.4.918.042 1.212.052 3.55.052 2.34 0 2.633-.01 3.552-.052.917-.042 1.543-.187 2.09-.4a4.22 4.22 0 001.526-.994c.438-.43.777-.95.994-1.525.213-.548.358-1.174.4-2.09.042-.92.052-1.213.052-3.552 0-2.34-.01-2.633-.052-3.551-.041-.917-.187-1.543-.4-2.09a4.22 4.22 0 00-.994-1.526 4.218 4.218 0 00-1.525-.994c-.548-.213-1.174-.358-2.09-.4-.92-.042-1.213-.052-3.552-.052-2.34 0-2.633.01-3.551.052-.917.042-1.543.187-2.09.4a4.222 4.222 0 00-1.527.994 4.22 4.22 0 00-.993 1.525c-.213.548-.359 1.174-.4 2.09-.042.92-.052 1.213-.052 3.552 0 2.34.01 2.633.052 3.551z"/></g><defs><clipPath id="fa"><path transform="matrix(-1 0 0 1 30 0)" d="M0 0h30v30H0z"/></clipPath></defs></svg><svg viewBox="0 0 26 28" id="personal" xmlns="http://www.w3.org/2000/svg"><path d="M24.98 22.85a13.17 13.17 0 00-2.787-4.203 12.977 12.977 0 00-4.131-2.835l-.042-.018a8.752 8.752 0 003.554-7.07C21.574 3.904 17.737 0 13 0S4.426 3.905 4.426 8.724c0 2.909 1.4 5.487 3.554 7.073-.014.008-.028.011-.042.018a12.864 12.864 0 00-4.131 2.835 13.227 13.227 0 00-2.787 4.204A13.269 13.269 0 000 27.712a.286.286 0 00.079.203.276.276 0 00.198.085H2.35a.278.278 0 00.277-.274 10.576 10.576 0 013.035-7.187c1.96-1.994 4.564-3.092 7.337-3.092 2.773 0 5.376 1.098 7.337 3.092a10.576 10.576 0 013.035 7.187.276.276 0 00.277.274h2.074a.273.273 0 00.198-.085.282.282 0 00.079-.203 13.302 13.302 0 00-1.02-4.862zM13 14.774c-1.587 0-3.08-.63-4.204-1.773a6.064 6.064 0 01-1.743-4.277c0-1.615.62-3.135 1.743-4.278A5.857 5.857 0 0113 2.673c1.587 0 3.08.63 4.204 1.773a6.064 6.064 0 011.743 4.278A6.064 6.064 0 0117.204 13 5.857 5.857 0 0113 14.774z"/></svg><svg viewBox="0 0 16 16" id="search-icon" xmlns="http://www.w3.org/2000/svg"><path d="M15.819 14.063l-3.212-2.747a6.968 6.968 0 001.456-4.285c0-1.88-.734-3.642-2.06-4.97A6.98 6.98 0 007.03 0a6.99 6.99 0 00-4.97 2.06A6.975 6.975 0 000 7.031c0 1.878.734 3.645 2.06 4.971a6.975 6.975 0 004.971 2.06 6.97 6.97 0 004.282-1.453l3.212 2.745a.193.193 0 00.272 0l1.022-1.02a.195.195 0 00.056-.136.193.193 0 00-.056-.136zm-5.075-3.32a5.222 5.222 0 01-3.713 1.538 5.222 5.222 0 01-3.712-1.537A5.222 5.222 0 011.78 7.03c0-1.401.546-2.72 1.538-3.712A5.222 5.222 0 017.03 1.78c1.402 0 2.721.544 3.713 1.538A5.222 5.222 0 0112.28 7.03a5.218 5.218 0 01-1.537 3.713z"/></svg><svg viewBox="0 0 30 30" id="vk-icon" xmlns="http://www.w3.org/2000/svg"><path d="M15 0C6.716 0 0 6.716 0 15c0 8.284 6.716 15 15 15 8.284 0 15-6.716 15-15 0-8.284-6.716-15-15-15zm7.609 16.622c.699.683 1.439 1.326 2.066 2.08.278.333.54.677.74 1.065.285.553.027 1.159-.467 1.192l-3.073-.001c-.794.066-1.426-.255-1.958-.797-.425-.433-.82-.894-1.229-1.342a2.871 2.871 0 00-.553-.492c-.42-.272-.783-.189-1.023.249-.245.445-.3.939-.324 1.434-.033.725-.252.914-.979.948-1.554.073-3.028-.163-4.398-.946-1.208-.69-2.144-1.666-2.959-2.77-1.587-2.152-2.803-4.514-3.895-6.944-.246-.547-.066-.84.538-.85a85.522 85.522 0 013.009-.002c.408.007.678.24.835.625.542 1.334 1.206 2.603 2.039 3.78.222.313.448.625.77.846.357.245.628.164.796-.233.107-.253.154-.523.177-.794.08-.927.09-1.854-.049-2.777-.086-.578-.41-.951-.987-1.06-.293-.056-.25-.165-.108-.332.248-.29.48-.47.944-.47h3.472c.547.107.67.353.744.904l.003 3.859c-.006.213.107.845.49.985.307.101.51-.145.693-.34.833-.883 1.426-1.926 1.957-3.005.235-.476.437-.969.634-1.462.146-.365.373-.545.785-.539l3.343.004c.099 0 .199.001.296.018.564.097.718.339.544.889-.275.863-.808 1.583-1.329 2.304-.558.772-1.154 1.517-1.707 2.293-.508.709-.468 1.066.163 1.681z"/></svg></svg>